<svg width="364" height="225" viewBox="0 0 364 225" fill="none" xmlns="http://www.w3.org/2000/svg">
<g filter="url(#filter0_d_204_3100)">
<rect width="181" height="60" rx="8" transform="matrix(0.859406 -0.511293 0.707107 0.707107 196.326 159.115)" fill="#0A5EE6"/>
</g>
<rect width="181" height="60" rx="8" transform="matrix(0.859406 -0.511293 0.707107 0.707107 196.326 159.115)" fill="#0A5EE6"/>
<path d="M268.27 158.041L258.37 148.142L262.521 145.672C263.117 145.318 263.76 145.097 264.45 145.01C265.14 144.915 265.82 144.973 266.488 145.185C267.157 145.396 267.757 145.768 268.29 146.301C268.577 146.588 268.795 146.902 268.944 147.242C269.093 147.575 269.161 147.899 269.148 148.215C269.136 148.523 269.034 148.786 268.843 149.006C269.279 148.866 269.72 148.818 270.165 148.861C270.606 148.9 271.031 149.001 271.44 149.163C271.855 149.322 272.236 149.52 272.583 149.758C272.93 149.995 273.233 150.243 273.492 150.502C274.039 151.049 274.37 151.623 274.486 152.223C274.603 152.815 274.527 153.379 274.259 153.915C273.99 154.45 273.552 154.899 272.945 155.26L268.27 158.041ZM268.667 156.136L271.77 154.29C272.165 154.055 272.441 153.759 272.596 153.404C272.753 153.04 272.783 152.654 272.686 152.245C272.588 151.837 272.355 151.449 271.988 151.082C271.662 150.756 271.259 150.508 270.776 150.336C270.289 150.16 269.793 150.079 269.287 150.094C268.787 150.106 268.34 150.23 267.944 150.465L264.842 152.311L268.667 156.136ZM263.816 151.285L266.386 149.756C266.913 149.443 267.236 149.048 267.353 148.572C267.472 148.088 267.301 147.615 266.839 147.153C266.339 146.653 265.778 146.393 265.154 146.373C264.532 146.345 263.957 146.487 263.43 146.801L260.861 148.33L263.816 151.285Z" fill="white"/>
<path d="M282.832 149.671C281.869 150.244 280.839 150.548 279.742 150.585C278.651 150.617 277.588 150.423 276.554 150C275.52 149.57 274.605 148.957 273.809 148.16L268.039 142.39L269.483 141.531L275.253 147.301C275.818 147.867 276.465 148.313 277.193 148.639C277.927 148.961 278.676 149.121 279.44 149.118C280.21 149.111 280.945 148.899 281.644 148.483C282.354 148.061 282.809 147.565 283.007 146.996C283.201 146.422 283.185 145.826 282.96 145.208C282.736 144.582 282.341 143.986 281.775 143.42L276.005 137.65L277.449 136.791L283.219 142.561C283.818 143.16 284.27 143.786 284.576 144.438C284.876 145.087 285.019 145.731 285.002 146.373C284.991 147.011 284.807 147.613 284.45 148.178C284.093 148.744 283.554 149.242 282.832 149.671Z" fill="white"/>
<path d="M288.621 130.145L289.809 131.333L285.804 133.715L294.516 142.427L293.072 143.286L284.36 134.574L280.364 136.952L279.176 135.764L288.621 130.145Z" fill="white"/>
<path d="M299.447 123.704L300.635 124.892L296.631 127.274L305.342 135.986L303.898 136.845L295.187 128.133L291.191 130.511L290.003 129.323L299.447 123.704Z" fill="white"/>
<path d="M316.154 129.847C315.341 130.331 314.444 130.654 313.464 130.816C312.479 130.973 311.478 130.978 310.463 130.83C309.447 130.683 308.476 130.392 307.549 129.959C306.617 129.521 305.798 128.948 305.091 128.241C304.384 127.534 303.876 126.779 303.568 125.978C303.255 125.171 303.135 124.371 303.208 123.576C303.281 122.78 303.543 122.038 303.995 121.348C304.443 120.653 305.073 120.063 305.887 119.579C306.706 119.092 307.608 118.77 308.593 118.612C309.573 118.45 310.571 118.443 311.587 118.59C312.603 118.738 313.574 119.033 314.499 119.474C315.426 119.908 316.243 120.478 316.95 121.185C317.658 121.892 318.168 122.649 318.48 123.455C318.794 124.253 318.915 125.05 318.842 125.845C318.769 126.641 318.509 127.386 318.061 128.08C317.609 128.77 316.973 129.359 316.154 129.847ZM314.966 128.659C315.591 128.287 316.069 127.837 316.4 127.31C316.737 126.778 316.927 126.21 316.971 125.605C317.016 124.992 316.917 124.382 316.675 123.774C316.433 123.158 316.044 122.581 315.507 122.044C314.969 121.507 314.345 121.07 313.634 120.733C312.918 120.392 312.175 120.165 311.404 120.052C310.634 119.932 309.874 119.929 309.122 120.046C308.376 120.159 307.694 120.399 307.075 120.767C306.45 121.139 305.97 121.59 305.633 122.121C305.302 122.649 305.114 123.22 305.069 123.833C305.025 124.438 305.124 125.048 305.365 125.664C305.607 126.272 305.997 126.845 306.534 127.382C307.077 127.924 307.703 128.363 308.414 128.7C309.125 129.036 309.866 129.265 310.635 129.386C311.411 129.503 312.172 129.505 312.918 129.392C313.665 129.271 314.347 129.027 314.966 128.659Z" fill="white"/>
<path d="M324.026 124.87L314.126 114.971L315.69 114.04L329.447 118.216L321.698 110.466L323.141 109.607L333.041 119.507L331.485 120.432L317.711 116.267L325.461 124.016L324.026 124.87Z" fill="white"/>
<g filter="url(#filter1_d_204_3100)">
<rect width="181" height="60" rx="8" transform="matrix(0.859406 -0.511293 0.707107 0.707107 193 251.544)" fill="black"/>
</g>
<rect width="181" height="60" rx="8" transform="matrix(0.859406 -0.511293 0.707107 0.707107 193 251.544)" fill="black"/>
<path d="M264.944 250.47L255.044 240.571L259.195 238.101C259.791 237.747 260.434 237.526 261.124 237.439C261.814 237.344 262.494 237.402 263.162 237.613C263.83 237.825 264.431 238.197 264.964 238.73C265.251 239.017 265.469 239.331 265.618 239.671C265.767 240.004 265.835 240.328 265.822 240.644C265.81 240.951 265.708 241.215 265.516 241.434C265.953 241.295 266.394 241.247 266.839 241.29C267.28 241.329 267.705 241.43 268.114 241.592C268.529 241.751 268.91 241.949 269.257 242.187C269.604 242.424 269.907 242.672 270.166 242.931C270.713 243.478 271.044 244.052 271.16 244.652C271.277 245.244 271.201 245.808 270.933 246.344C270.664 246.879 270.226 247.328 269.619 247.689L264.944 250.47ZM265.341 248.565L268.444 246.719C268.839 246.484 269.114 246.188 269.27 245.833C269.427 245.469 269.457 245.082 269.359 244.674C269.262 244.266 269.029 243.878 268.662 243.511C268.336 243.185 267.933 242.937 267.45 242.765C266.963 242.589 266.467 242.508 265.961 242.523C265.461 242.535 265.013 242.659 264.618 242.894L261.516 244.739L265.341 248.565ZM260.49 243.714L263.06 242.185C263.587 241.872 263.91 241.477 264.027 241.001C264.146 240.517 263.975 240.044 263.513 239.582C263.013 239.082 262.452 238.822 261.828 238.802C261.206 238.773 260.631 238.916 260.104 239.23L257.535 240.758L260.49 243.714Z" fill="white"/>
<path d="M279.506 242.1C278.543 242.673 277.513 242.977 276.416 243.013C275.325 243.046 274.262 242.851 273.228 242.429C272.194 241.999 271.279 241.386 270.483 240.589L264.713 234.819L266.156 233.96L271.926 239.73C272.492 240.296 273.139 240.742 273.867 241.068C274.601 241.39 275.35 241.55 276.114 241.547C276.884 241.54 277.619 241.328 278.318 240.912C279.028 240.49 279.482 239.994 279.681 239.425C279.875 238.851 279.859 238.255 279.634 237.637C279.41 237.011 279.015 236.415 278.449 235.849L272.679 230.079L274.123 229.22L279.893 234.99C280.492 235.589 280.944 236.215 281.249 236.867C281.55 237.515 281.692 238.16 281.676 238.802C281.665 239.44 281.481 240.042 281.124 240.607C280.767 241.173 280.227 241.671 279.506 242.1Z" fill="white"/>
<path d="M285.295 222.574L286.483 223.762L282.478 226.144L291.19 234.856L289.746 235.715L281.034 227.003L277.038 229.381L275.85 228.193L285.295 222.574Z" fill="white"/>
<path d="M296.121 216.133L297.309 217.321L293.304 219.703L302.016 228.415L300.572 229.274L291.861 220.562L287.864 222.94L286.676 221.752L296.121 216.133Z" fill="white"/>
<path d="M312.828 222.276C312.014 222.76 311.118 223.083 310.137 223.245C309.153 223.402 308.152 223.407 307.137 223.259C306.121 223.112 305.15 222.821 304.223 222.388C303.291 221.95 302.472 221.377 301.765 220.67C301.057 219.963 300.55 219.208 300.242 218.407C299.929 217.6 299.809 216.8 299.882 216.004C299.955 215.209 300.217 214.467 300.669 213.777C301.117 213.082 301.747 212.492 302.561 212.008C303.38 211.521 304.282 211.198 305.267 211.041C306.247 210.879 307.245 210.872 308.261 211.019C309.277 211.167 310.247 211.462 311.173 211.903C312.1 212.337 312.917 212.907 313.624 213.614C314.331 214.321 314.841 215.078 315.154 215.884C315.468 216.682 315.589 217.479 315.516 218.274C315.443 219.069 315.183 219.814 314.735 220.509C314.283 221.199 313.647 221.788 312.828 222.276ZM311.64 221.088C312.265 220.716 312.742 220.266 313.074 219.739C313.41 219.207 313.601 218.639 313.645 218.034C313.689 217.421 313.591 216.811 313.348 216.203C313.107 215.587 312.718 215.01 312.181 214.473C311.643 213.936 311.019 213.499 310.308 213.162C309.592 212.821 308.849 212.594 308.078 212.481C307.308 212.36 306.548 212.358 305.796 212.475C305.05 212.588 304.368 212.828 303.749 213.196C303.124 213.568 302.644 214.019 302.307 214.55C301.976 215.078 301.788 215.649 301.743 216.262C301.699 216.867 301.798 217.477 302.039 218.093C302.281 218.701 302.671 219.273 303.208 219.811C303.75 220.353 304.377 220.792 305.088 221.129C305.799 221.465 306.539 221.694 307.309 221.815C308.085 221.932 308.845 221.934 309.591 221.821C310.338 221.7 311.021 221.456 311.64 221.088Z" fill="white"/>
<path d="M320.7 217.299L310.8 207.4L312.364 206.469L326.121 210.645L318.371 202.895L319.815 202.036L329.715 211.936L328.159 212.861L314.385 208.696L322.135 216.445L320.7 217.299Z" fill="white"/>
<g filter="url(#filter2_b_204_3100)">
<rect width="297" height="124" rx="8" transform="matrix(0.859406 -0.511293 0.707107 0.707107 0 151.854)" fill="white" fill-opacity="0.4"/>
<rect x="0.783257" y="0.0979069" width="296" height="123" rx="7.5" transform="matrix(0.859406 -0.511293 0.707107 0.707107 0.0408903 152.283)" stroke="white"/>
</g>
<path d="M93.4077 159.664L94.4183 159.063L101.348 165.993L100.337 166.594L97.0408 163.297L92.8718 165.778L96.1683 169.074L95.1577 169.675L88.228 162.746L89.2387 162.144L92.0402 164.946L96.2092 162.466L93.4077 159.664Z" fill="black"/>
<path d="M103.499 164.713L97.4007 158.615L96.4562 159.177L95.9074 158.177L97.5798 157.182L104.509 164.112L103.499 164.713Z" fill="black"/>
<path d="M139.483 132.252L140.494 131.651L147.424 138.58L146.413 139.182L143.116 135.885L138.947 138.365L142.244 141.662L141.233 142.263L134.304 135.334L135.314 134.732L138.116 137.534L142.285 135.054L139.483 132.252Z" fill="black"/>
<path d="M148.63 137.863L147.892 137.125C147.974 136.714 148.066 136.253 148.171 135.744C148.272 135.231 148.36 134.708 148.434 134.174C148.509 133.635 148.555 133.118 148.572 132.623C148.589 132.129 148.561 131.688 148.487 131.301C148.409 130.91 148.268 130.612 148.064 130.407C147.82 130.163 147.525 129.983 147.179 129.868C146.83 129.749 146.472 129.702 146.106 129.725C145.743 129.746 145.413 129.845 145.116 130.022C144.82 130.198 144.608 130.422 144.481 130.692C144.359 130.959 144.326 131.239 144.382 131.532C144.439 131.82 144.589 132.085 144.833 132.329L143.823 132.931C143.417 132.525 143.171 132.087 143.085 131.617C142.995 131.144 143.054 130.694 143.259 130.266C143.462 129.835 143.803 129.476 144.285 129.19C144.766 128.904 145.3 128.741 145.888 128.702C146.48 128.66 147.059 128.734 147.626 128.923C148.189 129.109 148.672 129.404 149.075 129.806C149.306 130.037 149.487 130.327 149.617 130.675C149.745 131.02 149.831 131.404 149.875 131.825C149.919 132.246 149.934 132.69 149.92 133.156C149.903 133.619 149.867 134.088 149.811 134.563C149.755 135.038 149.69 135.5 149.615 135.95L153.237 133.796L154.068 134.627L148.63 137.863Z" fill="black"/>
<rect width="44" height="44" rx="8" transform="matrix(0.859406 -0.511293 0.707107 0.707107 163.211 99.8652)" fill="#0A5EE6"/>
<path d="M192.666 100.612L193.676 100.01L200.606 106.94L199.595 107.541L196.299 104.245L192.13 106.725L195.426 110.022L194.416 110.623L187.486 103.693L188.497 103.092L191.298 105.894L195.467 103.413L192.666 100.612Z" fill="white"/>
<path d="M204.444 104.862C203.934 105.165 203.387 105.341 202.802 105.389C202.218 105.431 201.655 105.361 201.113 105.178C200.569 104.991 200.102 104.703 199.712 104.314L200.723 103.713C200.957 103.947 201.238 104.122 201.565 104.238C201.889 104.351 202.229 104.393 202.585 104.366C202.941 104.338 203.283 104.226 203.612 104.031C203.897 103.861 204.104 103.646 204.233 103.385C204.366 103.122 204.413 102.849 204.374 102.567C204.332 102.281 204.194 102.022 203.959 101.787C203.666 101.494 203.329 101.304 202.95 101.219C202.572 101.129 202.172 101.132 201.752 101.23C201.332 101.322 200.915 101.491 200.502 101.736L199.834 101.068C200.403 100.729 200.761 100.361 200.908 99.9636C201.058 99.5637 200.943 99.174 200.564 98.7945C200.362 98.5932 200.111 98.4478 199.811 98.3583C199.51 98.2687 199.202 98.2389 198.886 98.2687C198.572 98.2929 198.292 98.3777 198.047 98.5233C197.799 98.6712 197.611 98.8643 197.485 99.1026C197.355 99.3376 197.302 99.5822 197.326 99.8364C197.35 100.091 197.463 100.318 197.664 100.52L196.653 101.121C196.386 100.854 196.201 100.563 196.099 100.25C196.002 99.935 195.98 99.619 196.034 99.3025C196.093 98.9835 196.221 98.6862 196.419 98.4107C196.613 98.1318 196.875 97.8945 197.204 97.6989C197.633 97.4436 198.119 97.2936 198.663 97.249C199.207 97.2044 199.738 97.2621 200.256 97.4222C200.779 97.5798 201.218 97.8369 201.574 98.1932C201.894 98.5133 202.091 98.8671 202.166 99.2546C202.24 99.6421 202.163 99.9905 201.935 100.3C202.31 100.208 202.685 100.19 203.061 100.246C203.433 100.298 203.781 100.407 204.106 100.571C204.434 100.734 204.723 100.939 204.97 101.186C205.356 101.572 205.587 101.998 205.662 102.464C205.742 102.927 205.677 103.373 205.467 103.803C205.258 104.228 204.917 104.581 204.444 104.862Z" fill="white"/>
<path d="M240.016 72.4411L241.027 71.8399L247.956 78.7695L246.946 79.3708L243.649 76.0743L239.48 78.5545L242.777 81.8511L241.766 82.4524L234.837 75.5227L235.847 74.9214L238.649 77.723L242.818 75.2427L240.016 72.4411Z" fill="black"/>
<path d="M252.784 75.8972L250.913 74.0262L247.292 76.1808L246.45 75.3393L245.602 69.1179L246.865 68.3663L251.092 72.5934L251.929 72.0959L252.76 72.9274L251.924 73.4249L253.795 75.2959L252.784 75.8972ZM247.635 74.6343L250.082 73.1946L247.005 70.1464L247.635 74.6343Z" fill="black"/>
<defs>
<filter id="filter0_d_204_3100" x="179.955" y="53.3372" width="230.722" height="169.439" filterUnits="userSpaceOnUse" color-interpolation-filters="sRGB">
<feFlood flood-opacity="0" result="BackgroundImageFix"/>
<feColorMatrix in="SourceAlpha" type="matrix" values="0 0 0 0 0 0 0 0 0 0 0 0 0 0 0 0 0 0 127 0" result="hardAlpha"/>
<feOffset dy="4"/>
<feGaussianBlur stdDeviation="10"/>
<feComposite in2="hardAlpha" operator="out"/>
<feColorMatrix type="matrix" values="0 0 0 0 0.0386301 0 0 0 0 0.369133 0 0 0 0 0.90137 0 0 0 0.3 0"/>
<feBlend mode="normal" in2="BackgroundImageFix" result="effect1_dropShadow_204_3100"/>
<feBlend mode="normal" in="SourceGraphic" in2="effect1_dropShadow_204_3100" result="shape"/>
</filter>
<filter id="filter1_d_204_3100" x="176.629" y="145.766" width="230.722" height="169.439" filterUnits="userSpaceOnUse" color-interpolation-filters="sRGB">
<feFlood flood-opacity="0" result="BackgroundImageFix"/>
<feColorMatrix in="SourceAlpha" type="matrix" values="0 0 0 0 0 0 0 0 0 0 0 0 0 0 0 0 0 0 127 0" result="hardAlpha"/>
<feOffset dy="4"/>
<feGaussianBlur stdDeviation="10"/>
<feComposite in2="hardAlpha" operator="out"/>
<feColorMatrix type="matrix" values="0 0 0 0 0 0 0 0 0 0 0 0 0 0 0 0 0 0 0.2 0"/>
<feBlend mode="normal" in2="BackgroundImageFix" result="effect1_dropShadow_204_3100"/>
<feBlend mode="normal" in="SourceGraphic" in2="effect1_dropShadow_204_3100" result="shape"/>
</filter>
<filter id="filter2_b_204_3100" x="-11.3715" y="-12.2341" width="365.668" height="264.003" filterUnits="userSpaceOnUse" color-interpolation-filters="sRGB">
<feFlood flood-opacity="0" result="BackgroundImageFix"/>
<feGaussianBlur in="BackgroundImageFix" stdDeviation="7.5"/>
<feComposite in2="SourceAlpha" operator="in" result="effect1_backgroundBlur_204_3100"/>
<feBlend mode="normal" in="SourceGraphic" in2="effect1_backgroundBlur_204_3100" result="shape"/>
</filter>
</defs>
</svg>
