<svg width="513" height="261" viewBox="0 0 513 261" fill="none" xmlns="http://www.w3.org/2000/svg">
<path d="M174.604 105.288L206.259 91.1557L353.624 173.354L323.843 186.651L300.669 173.741L248.41 197.072L256.599 216.672L226.818 229.968L174.604 105.288ZM237.329 170.307L268.984 156.175L219.989 129L237.329 170.307Z" fill="black"/>
<path d="M367.577 61.4175L395.673 48.8738L466.951 122.759L438.761 135.344L431.035 129.28C431.196 132.873 430.257 136.252 428.219 139.417C426.243 142.554 422.914 145.168 418.231 147.259C411.238 150.381 403.685 152.273 395.57 152.936C387.518 153.571 379.424 153.097 371.287 151.515C363.103 149.884 355.395 147.264 348.164 143.657C340.947 139.973 334.678 135.372 329.355 129.856C324.271 124.585 320.736 119.116 318.752 113.448C316.768 107.78 316.298 102.246 317.342 96.847C318.401 91.3707 320.852 86.3651 324.696 81.8304C328.602 77.2678 333.863 73.5091 340.482 70.5544C345.851 68.1571 351.576 66.8695 357.658 66.6915C363.754 66.4364 369.778 66.8476 375.73 67.9251L367.577 61.4175ZM398.546 125.603C402.604 123.792 405.387 121.351 406.893 118.283C408.351 115.165 408.507 111.854 407.359 108.35C406.274 104.817 403.811 101.477 399.97 98.3292C396.462 95.5261 392.372 93.3703 387.701 91.8617C383.03 90.3531 378.327 89.5986 373.593 89.5983C368.92 89.5701 364.742 90.3783 361.059 92.0229C357.063 93.8069 354.312 96.2331 352.806 99.3016C351.362 102.342 351.214 105.615 352.362 109.119C353.509 112.624 355.996 115.988 359.822 119.213C363.345 121.939 367.411 124.071 372.019 125.607C376.691 127.116 381.386 127.909 386.106 127.986C390.778 128.014 394.925 127.22 398.546 125.603Z" fill="black"/>
<rect width="16.4101" height="16.426" transform="matrix(0.913128 -0.407672 0.694296 0.719689 278.101 88.6799)" fill="#0A5EE6"/>
<rect width="16.4101" height="16.426" transform="matrix(0.913128 -0.407672 0.694296 0.719689 379.247 43.5227)" fill="#0A5EE6"/>
<rect width="16.4101" height="16.426" transform="matrix(0.913128 -0.407672 0.694296 0.719689 376.465 190.641)" fill="#0A5EE6"/>
<rect width="16.4101" height="16.426" transform="matrix(0.913128 -0.407672 0.694296 0.719689 477.611 145.484)" fill="#0A5EE6"/>
<g filter="url(#filter0_d_204_1992)">
<rect width="16.4101" height="16.426" transform="matrix(0.913128 -0.407672 0.694296 0.719689 278.101 88.6799)" fill="#0A5EE6"/>
<rect width="16.4101" height="16.426" transform="matrix(0.913128 -0.407672 0.694296 0.719689 379.247 43.5227)" fill="#0A5EE6"/>
<rect width="16.4101" height="16.426" transform="matrix(0.913128 -0.407672 0.694296 0.719689 376.465 190.641)" fill="#0A5EE6"/>
<rect width="16.4101" height="16.426" transform="matrix(0.913128 -0.407672 0.694296 0.719689 477.611 145.484)" fill="#0A5EE6"/>
</g>
<rect x="-1.32613" y="-0.257414" width="112.418" height="143.324" transform="matrix(0.913128 -0.407672 0.694296 0.719689 291.359 90.6328)" stroke="#0A5EE6" stroke-width="1.65"/>
<rect width="16.4101" height="16.426" transform="matrix(0.913128 -0.407672 0.694296 0.719689 278.101 88.6799)" fill="#0A5EE6"/>
<rect width="16.4101" height="16.426" transform="matrix(0.913128 -0.407672 0.694296 0.719689 379.247 43.5227)" fill="#0A5EE6"/>
<rect width="16.4101" height="16.426" transform="matrix(0.913128 -0.407672 0.694296 0.719689 376.465 190.641)" fill="#0A5EE6"/>
<rect width="16.4101" height="16.426" transform="matrix(0.913128 -0.407672 0.694296 0.719689 477.611 145.484)" fill="#0A5EE6"/>
<g filter="url(#filter1_b_204_1992)">
<rect width="304.613" height="127.302" rx="6.6" transform="matrix(0.913128 -0.407672 0.694296 0.719689 0.00953674 124.182)" fill="white" fill-opacity="0.5"/>
<rect x="0.663063" y="0.128707" width="303.788" height="126.477" rx="6.1875" transform="matrix(0.913128 -0.407672 0.694296 0.719689 -0.0222229 124.489)" stroke="white" stroke-width="0.825"/>
</g>
<path d="M98.9799 140.038L100.081 139.546L107.067 146.787L105.965 147.279L102.642 143.834L98.0991 145.862L101.422 149.307L100.321 149.799L93.3354 142.558L94.4368 142.066L97.2608 144.994L101.804 142.965L98.9799 140.038Z" fill="black"/>
<path d="M109.41 145.741L103.263 139.369L102.234 139.828L101.704 138.822L103.527 138.008L110.512 145.249L109.41 145.741Z" fill="black"/>
<path d="M149.097 117.663L150.198 117.171L157.183 124.412L156.082 124.904L152.759 121.459L148.216 123.487L151.539 126.932L150.438 127.424L143.452 120.183L144.554 119.691L147.378 122.618L151.921 120.59L149.097 117.663Z" fill="black"/>
<path d="M158.498 123.825L157.755 123.054C157.862 122.666 157.984 122.232 158.12 121.751C158.254 121.268 158.374 120.773 158.479 120.267C158.586 119.755 158.662 119.263 158.705 118.79C158.749 118.316 158.741 117.89 158.683 117.512C158.621 117.13 158.487 116.833 158.28 116.619C158.034 116.364 157.731 116.166 157.371 116.026C157.007 115.882 156.631 115.806 156.241 115.798C155.856 115.787 155.501 115.854 155.178 115.999C154.854 116.143 154.619 116.339 154.471 116.588C154.327 116.835 154.278 117.101 154.322 117.387C154.368 117.667 154.514 117.935 154.76 118.19L153.659 118.682C153.249 118.258 153.011 117.817 152.944 117.358C152.874 116.897 152.959 116.469 153.198 116.076C153.435 115.679 153.815 115.364 154.34 115.13C154.864 114.896 155.439 114.785 156.063 114.797C156.692 114.807 157.302 114.927 157.892 115.157C158.479 115.383 158.976 115.706 159.382 116.127C159.615 116.368 159.791 116.662 159.912 117.008C160.03 117.35 160.101 117.725 160.126 118.133C160.151 118.541 160.144 118.969 160.106 119.415C160.064 119.858 160.001 120.305 159.918 120.757C159.835 121.208 159.742 121.647 159.64 122.072L163.586 120.31L164.424 121.179L158.498 123.825Z" fill="black"/>
<rect width="45.1279" height="45.1716" rx="6.6" transform="matrix(0.913128 -0.407672 0.694296 0.719689 175.557 88.0908)" fill="#0A5EE6"/>
<path d="M207.146 91.7462L208.248 91.2545L215.233 98.4953L214.131 98.987L210.808 95.5425L206.265 97.5708L209.588 101.015L208.487 101.507L201.502 94.2663L202.603 93.7745L205.427 96.7019L209.97 94.6736L207.146 91.7462Z" fill="white"/>
<path d="M219.404 96.8252C218.849 97.0731 218.261 97.1953 217.638 97.1919C217.017 97.1831 216.424 97.0679 215.86 96.8462C215.293 96.621 214.813 96.305 214.421 95.8981L215.522 95.4064C215.758 95.6512 216.046 95.8431 216.387 95.9822C216.724 96.1177 217.082 96.1873 217.461 96.1909C217.839 96.1946 218.208 96.1164 218.566 95.9564C218.876 95.8178 219.107 95.6287 219.257 95.389C219.411 95.1473 219.475 94.8894 219.448 94.6153C219.418 94.3377 219.285 94.0765 219.049 93.8317C218.753 93.5249 218.406 93.3146 218.009 93.2009C217.613 93.0818 217.189 93.0513 216.739 93.1094C216.289 93.1621 215.84 93.2889 215.389 93.4899L214.716 92.7916C215.336 92.5146 215.734 92.1914 215.91 91.8221C216.089 91.4509 215.988 91.067 215.605 90.6705C215.402 90.4601 215.144 90.2992 214.83 90.1878C214.516 90.0763 214.191 90.0216 213.856 90.0235C213.521 90.02 213.22 90.0778 212.954 90.1968C212.683 90.3178 212.474 90.4873 212.328 90.7055C212.179 90.9201 212.11 91.1505 212.123 91.3966C212.135 91.6427 212.242 91.8709 212.445 92.0812L211.344 92.5729C211.075 92.2936 210.894 91.9994 210.802 91.6902C210.714 91.379 210.707 91.0738 210.781 90.7744C210.86 90.4731 211.011 90.1985 211.234 89.9507C211.454 89.6994 211.744 89.4938 212.102 89.3338C212.57 89.125 213.093 89.0222 213.671 89.0255C214.25 89.0287 214.809 89.1291 215.35 89.3267C215.895 89.5224 216.347 89.8064 216.707 90.1788C217.029 90.5132 217.22 90.8696 217.278 91.248C217.337 91.6263 217.238 91.9543 216.98 92.232C217.383 92.1758 217.781 92.1902 218.176 92.2754C218.567 92.3571 218.931 92.4909 219.266 92.6765C219.606 92.8603 219.901 93.0814 220.15 93.34C220.539 93.7434 220.762 94.1719 220.818 94.6254C220.878 95.0769 220.787 95.5002 220.543 95.8953C220.299 96.285 219.92 96.595 219.404 96.8252Z" fill="white"/>
<path d="M258.652 68.751L259.754 68.2593L266.739 75.5001L265.638 75.9918L262.315 72.5472L257.771 74.5755L261.094 78.0201L259.993 78.5118L253.008 71.271L254.109 70.7793L256.933 73.7067L261.476 71.6783L258.652 68.751Z" fill="black"/>
<path d="M272 73.1512L270.114 71.1962L266.167 72.9581L265.319 72.0789L264.739 66.0333L266.116 65.4187L270.377 69.8356L271.288 69.4287L272.127 70.2976L271.215 70.7044L273.101 72.6595L272 73.1512ZM266.611 71.5023L269.276 70.3273L266.173 67.1398L266.611 71.5023Z" fill="black"/>
<defs>
<filter id="filter0_d_204_1992" x="269.851" y="35.1828" width="242.399" height="182.13" filterUnits="userSpaceOnUse" color-interpolation-filters="sRGB">
<feFlood flood-opacity="0" result="BackgroundImageFix"/>
<feColorMatrix in="SourceAlpha" type="matrix" values="0 0 0 0 0 0 0 0 0 0 0 0 0 0 0 0 0 0 127 0" result="hardAlpha"/>
<feOffset dy="6.6"/>
<feGaussianBlur stdDeviation="4.125"/>
<feComposite in2="hardAlpha" operator="out"/>
<feColorMatrix type="matrix" values="0 0 0 0 0.0386301 0 0 0 0 0.369133 0 0 0 0 0.90137 0 0 0 0.3 0"/>
<feBlend mode="normal" in2="BackgroundImageFix" result="effect1_dropShadow_204_1992"/>
<feBlend mode="normal" in="SourceGraphic" in2="effect1_dropShadow_204_1992" result="shape"/>
</filter>
<filter id="filter1_b_204_1992" x="-9.32776" y="-10.3945" width="385.211" height="236.589" filterUnits="userSpaceOnUse" color-interpolation-filters="sRGB">
<feFlood flood-opacity="0" result="BackgroundImageFix"/>
<feGaussianBlur in="BackgroundImageFix" stdDeviation="6.1875"/>
<feComposite in2="SourceAlpha" operator="in" result="effect1_backgroundBlur_204_1992"/>
<feBlend mode="normal" in="SourceGraphic" in2="effect1_backgroundBlur_204_1992" result="shape"/>
</filter>
</defs>
</svg>
